<svg width="128" height="114" viewBox="0 0 128 114" fill="none" xmlns="http://www.w3.org/2000/svg">
<path d="M112.588 113.95L96.0563 97.4187H30.65C22.2167 97.4187 15.125 94.5916 9.375 88.9375C3.625 83.2833 0.75 76.2396 0.75 67.8062C0.75 60.1396 3.16979 53.7187 8.00938 48.5437C12.849 43.3687 18.9104 40.2062 26.1938 39.0562C26.3854 37.7146 26.6969 36.2052 27.1281 34.5281C27.5594 32.851 28.1583 31.3416 28.925 30L5.0625 6.13748L11.1 0.0999756L118.769 107.769L112.588 113.95ZM30.65 88.7937H87.7188L35.9688 37.0437C34.9146 38.4812 34.2198 40.1104 33.8844 41.9312C33.549 43.7521 33.3813 45.525 33.3813 47.25H30.65C24.7083 47.25 19.6771 49.1427 15.5563 52.9281C11.4354 56.7135 9.375 61.5291 9.375 67.375C9.375 73.3166 11.4354 78.3719 15.5563 82.5406C19.6771 86.7094 24.7083 88.7937 30.65 88.7937ZM117.763 92.9625L111.006 86.2062C113.402 84.5771 115.271 82.7562 116.613 80.7437C117.954 78.7312 118.625 76.3354 118.625 73.5562C118.625 69.4354 117.14 65.9135 114.169 62.9906C111.198 60.0677 107.652 58.6062 103.531 58.6062H93.9V46.9625C93.9 38.5291 90.9771 31.4614 85.1313 25.7593C79.2854 20.0573 72.1458 17.2062 63.7125 17.2062C61.0292 17.2062 58.1302 17.6375 55.0156 18.5C51.901 19.3625 49.05 20.7521 46.4625 22.6687L40.425 16.6312C43.875 13.8521 47.5885 11.8156 51.5656 10.5219C55.5427 9.2281 59.5917 8.58123 63.7125 8.58123C74.35 8.58123 83.4781 12.3666 91.0969 19.9375C98.7156 27.5083 102.525 36.6125 102.525 47.25V50.2687C109.425 50.1729 115.271 52.3291 120.063 56.7375C124.854 61.1458 127.25 66.7521 127.25 73.5562C127.25 76.9104 126.459 80.4323 124.878 84.1218C123.297 87.8114 120.925 90.7583 117.763 92.9625Z" fill="#C5DBFF"/>
</svg>
