<svg width="92" height="122" viewBox="0 0 92 122" fill="none" xmlns="http://www.w3.org/2000/svg">
<path d="M8.625 121.5C6.25312 121.5 4.22266 120.655 2.53359 118.966C0.844531 117.277 0 115.247 0 112.875V50.4875C0 48.1156 0.844531 46.0852 2.53359 44.3961C4.22266 42.707 6.25312 41.8625 8.625 41.8625H18.6875V28.0625C18.6875 20.506 21.352 14.0648 26.6809 8.73891C32.0098 3.41297 38.4546 0.75 46.0152 0.75C53.5759 0.75 60.0156 3.41297 65.3344 8.73891C70.6531 14.0648 73.3125 20.506 73.3125 28.0625V41.8625H83.375C85.7469 41.8625 87.7773 42.707 89.4664 44.3961C91.1555 46.0852 92 48.1156 92 50.4875V112.875C92 115.247 91.1555 117.277 89.4664 118.966C87.7773 120.655 85.7469 121.5 83.375 121.5H8.625ZM8.625 112.875H83.375V50.4875H8.625V112.875ZM46.0241 92.75C49.0747 92.75 51.6781 91.6943 53.8344 89.583C55.9906 87.4717 57.0687 84.9336 57.0687 81.9688C57.0687 79.0938 55.9826 76.4823 53.8102 74.1344C51.6379 71.7865 49.0264 70.6125 45.9758 70.6125C42.9253 70.6125 40.3219 71.7865 38.1656 74.1344C36.0094 76.4823 34.9312 79.1177 34.9312 82.0406C34.9312 84.9635 36.0174 87.4792 38.1898 89.5875C40.3621 91.6958 42.9736 92.75 46.0241 92.75ZM27.3125 41.8625H64.6875V28.0625C64.6875 22.8715 62.8723 18.4592 59.242 14.8256C55.6115 11.1919 51.2032 9.375 46.017 9.375C40.8307 9.375 36.4167 11.1919 32.775 14.8256C29.1333 18.4592 27.3125 22.8715 27.3125 28.0625V41.8625Z" fill="#C5DBFF"/>
</svg>
